<?xml version="1.0" encoding="UTF-8" standalone="no"?>
<svg
   xmlns:dc="http://purl.org/dc/elements/1.1/"
   xmlns:cc="http://creativecommons.org/ns#"
   xmlns:rdf="http://www.w3.org/1999/02/22-rdf-syntax-ns#"
   xmlns:svg="http://www.w3.org/2000/svg"
   xmlns="http://www.w3.org/2000/svg"
   xmlns:sodipodi="http://sodipodi.sourceforge.net/DTD/sodipodi-0.dtd"
   xmlns:inkscape="http://www.inkscape.org/namespaces/inkscape"
   sodipodi:docname="capa.svg"
   inkscape:version="1.0 (4035a4fb49, 2020-05-01)"
   id="svg8"
   version="1.1"
   viewBox="0 0 160.1422 157.21066"
   height="157.21066mm"
   width="160.1422mm">
  <defs
     id="defs2">
    <filter
       height="1.006056"
       y="-0.0030279709"
       width="1.0059451"
       x="-0.0029725414"
       id="filter1236"
       style="color-interpolation-filters:sRGB"
       inkscape:collect="always">
      <feGaussianBlur
         id="feGaussianBlur1238"
         stdDeviation="0.19834553"
         inkscape:collect="always" />
    </filter>
  </defs>
  <sodipodi:namedview
     fit-margin-bottom="0"
     fit-margin-right="0"
     fit-margin-left="0"
     fit-margin-top="0"
     inkscape:window-maximized="1"
     inkscape:window-y="0"
     inkscape:window-x="1366"
     inkscape:window-height="742"
     inkscape:window-width="1366"
     showgrid="false"
     inkscape:document-rotation="0"
     inkscape:current-layer="layer1"
     inkscape:document-units="mm"
     inkscape:cy="631.62808"
     inkscape:cx="-335.06003"
     inkscape:zoom="0.24748737"
     inkscape:pageshadow="2"
     inkscape:pageopacity="0.0"
     borderopacity="1.0"
     bordercolor="#666666"
     pagecolor="#ffffff"
     id="base" />
  <metadata
     id="metadata5">
    <rdf:RDF>
      <cc:Work
         rdf:about="">
        <dc:format>image/svg+xml</dc:format>
        <dc:type
           rdf:resource="http://purl.org/dc/dcmitype/StillImage" />
        <dc:title></dc:title>
      </cc:Work>
    </rdf:RDF>
  </metadata>
  <g
     transform="translate(-26.858609,-45.141949)"
     style="filter:url(#filter1236)"
     id="layer1"
     inkscape:groupmode="layer"
     inkscape:label="Layer 1">
    <g
       inkscape:export-filename="/home/nicolas/g1254.svg.png"
       inkscape:export-ydpi="96"
       inkscape:export-xdpi="96"
       id="g1254">
      <path
         id="rect44"
         style="fill:#950018;fill-opacity:1;stroke-width:0.264583"
         d="m 109.42529,46.732389 c 0.73362,0.674322 1.10732,2.776678 1.10732,2.776678 0.22307,0.58365 -0.26805,0.73946 -0.37885,0.73946 H 97.46015 c -0.1108,0 0.78769,-0.190479 0.89341,-0.806294 0.15991,-0.931476 0.210493,-2.034929 0.882295,-2.703895 1.231205,-1.226003 3.224735,-1.582181 4.962185,-1.595986 1.82119,-0.01447 3.8864,0.357549 5.22725,1.590037 z"
         sodipodi:nodetypes="assssaaa"
         inkscape:export-filename="/home/nicolas/path936-5-3-5.png"
         inkscape:export-xdpi="96"
         inkscape:export-ydpi="96" />
      <path
         id="rect48"
         style="fill:#d4040b;fill-opacity:1;stroke-width:0.268825"
         d="m 99.839576,49.479085 c 4.422874,-1.154487 9.314804,-1.330717 13.740414,-0.186138 22.1926,5.739582 46.20046,15.768372 59.25541,34.078353 11.06201,15.514854 13.58963,37.16445 10.1042,55.71617 -0.76207,4.0562 -1.46762,8.17703 -6.49814,10.64644 L 36.918209,149.69573 C 33.402726,148.07288 31.304512,146.43348 30.389773,143.6564 23.65789,123.21893 30.03217,97.867283 42.980068,80.464172 55.695513,63.373491 78.842675,54.959837 99.839576,49.479085 Z"
         sodipodi:nodetypes="aaaaccaaa"
         inkscape:export-filename="/home/nicolas/path936-5-3-5.png"
         inkscape:export-xdpi="96"
         inkscape:export-ydpi="96" />
      <path
         inkscape:transform-center-y="-0.58142586"
         inkscape:transform-center-x="-0.015719681"
         d="m 83.97972,96.135992 -3.652579,-2.272031 -3.689099,2.212239 1.03212,-4.175905 -3.243958,-2.824922 4.290464,-0.308821 1.684223,-3.958137 1.619532,3.985043 4.284865,0.378659 -3.289538,2.771713 z"
         inkscape:randomized="0"
         inkscape:rounded="0"
         inkscape:flatsided="false"
         sodipodi:arg2="1.5789403"
         sodipodi:arg1="0.95062173"
         sodipodi:r2="2.8104351"
         sodipodi:r1="6.2454114"
         sodipodi:cy="91.053619"
         sodipodi:cx="80.350029"
         sodipodi:sides="5"
         id="path936-7"
         style="fill:#f2f2f2;fill-opacity:1;stroke-width:0.0710511"
         sodipodi:type="star"
         inkscape:export-filename="/home/nicolas/path936-5-3-5.png"
         inkscape:export-xdpi="96"
         inkscape:export-ydpi="96" />
      <a
         id="a1240">
        <path
           inkscape:export-ydpi="96"
           inkscape:export-xdpi="96"
           inkscape:export-filename="/home/nicolas/path936-5-3-5.png"
           sodipodi:nodetypes="casssacc"
           d="m 37.154721,149.14829 c 0,0 44.723048,-13.81065 67.846399,-14.00331 24.18395,-0.2015 71.20843,13.46109 71.20843,13.46109 0.11451,2.6e-4 0.2067,0.50301 0.2067,1.12784 0,0 5.298,46.38962 -11.73681,50.70702 -19.06464,4.83185 -39.65322,-9.1828 -59.89326,-9.90023 -21.672963,-0.76822 -50.216667,22.2009 -64.763146,6.03227 -5.611581,-13.04883 -5.222139,-32.09208 -2.868313,-47.42468 z"
           style="fill:#950018;fill-opacity:1;stroke-width:0.26897"
           id="rect68" />
      </a>
      <path
         id="rect1103"
         style="fill:#950018;fill-opacity:1;stroke-width:0.264583"
         d="M 103.37384,48.729498 C 88.160933,56.617774 67.033385,68.283219 55.805354,84.683994 43.111886,103.22533 37.365891,149.52329 37.365891,149.52329 16.453037,145.37854 30.517942,91.08126 46.967131,70.085652 59.366183,54.259605 109.14898,45.734939 103.37384,48.729498 Z"
         sodipodi:nodetypes="sacas"
         inkscape:export-filename="/home/nicolas/path936-5-3-5.png"
         inkscape:export-xdpi="96"
         inkscape:export-ydpi="96" />
      <path
         sodipodi:type="star"
         style="fill:#f2f2f2;fill-opacity:1;stroke-width:0.0710511"
         id="path936"
         sodipodi:sides="5"
         sodipodi:cx="54.795738"
         sodipodi:cy="101.14152"
         sodipodi:r1="6.2454114"
         sodipodi:r2="2.8104351"
         sodipodi:arg1="0.95062173"
         sodipodi:arg2="1.5789403"
         inkscape:flatsided="false"
         inkscape:rounded="0"
         inkscape:randomized="0"
         d="m 58.425429,106.22389 -3.652579,-2.27203 -3.689099,2.21224 1.032121,-4.17591 -3.243959,-2.824919 4.290464,-0.308821 1.684223,-3.958137 1.619532,3.985043 4.284866,0.37866 -3.289539,2.771714 z"
         inkscape:transform-center-x="-0.015715649"
         inkscape:transform-center-y="-0.58142208"
         inkscape:export-filename="/home/nicolas/path936-5-3-5.png"
         inkscape:export-xdpi="96"
         inkscape:export-ydpi="96" />
      <path
         inkscape:transform-center-y="-0.58142408"
         inkscape:transform-center-x="-0.015718156"
         d="m 111.74905,89.349546 -3.65258,-2.27203 -3.6891,2.212238 1.03213,-4.175904 -3.24396,-2.824923 4.29046,-0.308821 1.68422,-3.958137 1.61954,3.985044 4.28486,0.378659 -3.28954,2.771713 z"
         inkscape:randomized="0"
         inkscape:rounded="0"
         inkscape:flatsided="false"
         sodipodi:arg2="1.5789403"
         sodipodi:arg1="0.95062173"
         sodipodi:r2="2.8104351"
         sodipodi:r1="6.2454114"
         sodipodi:cy="84.267174"
         sodipodi:cx="108.11936"
         sodipodi:sides="5"
         id="path936-5"
         style="fill:#f2f2f2;fill-opacity:1;stroke-width:0.0710511"
         sodipodi:type="star"
         inkscape:export-filename="/home/nicolas/path936-5-3-5.png"
         inkscape:export-xdpi="96"
         inkscape:export-ydpi="96" />
      <path
         sodipodi:type="star"
         style="fill:#f2f2f2;fill-opacity:1;stroke-width:0.0710511"
         id="path936-5-3"
         sodipodi:sides="5"
         sodipodi:cx="135.7643"
         sodipodi:cy="91.334747"
         sodipodi:r1="6.2454114"
         sodipodi:r2="2.8104351"
         sodipodi:arg1="0.95062173"
         sodipodi:arg2="1.5789403"
         inkscape:flatsided="false"
         inkscape:rounded="0"
         inkscape:randomized="0"
         d="m 139.39399,96.417119 -3.65258,-2.27203 -3.6891,2.212239 1.03212,-4.175905 -3.24396,-2.824922 4.29047,-0.308821 1.68422,-3.958137 1.61953,3.985043 4.28487,0.378659 -3.28954,2.771713 z"
         inkscape:transform-center-x="-0.015723657"
         inkscape:transform-center-y="-0.58141475"
         inkscape:export-filename="/home/nicolas/path936-5-3-5.png"
         inkscape:export-xdpi="96"
         inkscape:export-ydpi="96" />
      <path
         sodipodi:nodetypes="sacas"
         d="m 105.09267,48.321692 c 15.21291,7.888276 42.32126,23.693494 55.29961,43.138747 11.1848,16.758001 16.04918,58.273471 16.04918,58.273471 20.91285,-4.14475 7.0574,-58.607825 -9.60124,-79.43764 C 153.19508,53.234507 99.31753,45.327133 105.09267,48.321692 Z"
         style="fill:#950018;fill-opacity:1;stroke-width:0.264583"
         id="rect1103-6"
         inkscape:export-filename="/home/nicolas/path936-5-3-5.png"
         inkscape:export-xdpi="96"
         inkscape:export-ydpi="96" />
      <path
         inkscape:transform-center-y="-0.58142308"
         inkscape:transform-center-x="-0.015728743"
         d="m 162.17039,108.02889 -3.65258,-2.27203 -3.6891,2.21224 1.03212,-4.17591 -3.24396,-2.82492 4.29046,-0.30882 1.68423,-3.958136 1.61953,3.985046 4.28486,0.37866 -3.28953,2.77171 z"
         inkscape:randomized="0"
         inkscape:rounded="0"
         inkscape:flatsided="false"
         sodipodi:arg2="1.5789403"
         sodipodi:arg1="0.95062173"
         sodipodi:r2="2.8104351"
         sodipodi:r1="6.2454114"
         sodipodi:cy="102.94652"
         sodipodi:cx="158.5407"
         sodipodi:sides="5"
         id="path936-5-3-5"
         style="fill:#f2f2f2;fill-opacity:1;stroke-width:0.0710511"
         sodipodi:type="star"
         inkscape:export-filename="/home/nicolas/path936-5-3-5.png"
         inkscape:export-xdpi="96"
         inkscape:export-ydpi="96" />
    </g>
  </g>
</svg>
